<?xml version="1.0" encoding="UTF-8"?>
<!DOCTYPE svg PUBLIC "-//W3C//DTD SVG 1.1//EN" "http://www.w3.org/Graphics/SVG/1.1/DTD/svg11.dtd">
<svg xmlns="http://www.w3.org/2000/svg" version="1.1" width="1128px" height="546px" style="shape-rendering:geometricPrecision; text-rendering:geometricPrecision; image-rendering:optimizeQuality; fill-rule:evenodd; clip-rule:evenodd" xmlns:xlink="http://www.w3.org/1999/xlink">
<g><path style="opacity:0.421" fill="#fefffe" d="M 280.5,71.5 C 243.5,71.5 206.5,71.5 169.5,71.5C 169.5,72.5 169.5,73.5 169.5,74.5C 167.343,69.7955 169.01,67.6289 174.5,68C 209.852,67.1999 245.185,67.3666 280.5,68.5C 280.5,69.5 280.5,70.5 280.5,71.5 Z"/></g>
<g><path style="opacity:0.421" fill="#fefffe" d="M 603.5,71.5 C 566.5,71.5 529.5,71.5 492.5,71.5C 492.5,72.5 492.5,73.5 492.5,74.5C 492.167,74.5 491.833,74.5 491.5,74.5C 490.302,69.8495 492.302,67.6829 497.5,68C 531.167,67.3333 564.833,67.3333 598.5,68C 599.833,68.3333 601.167,68.6667 602.5,69C 603.252,69.6708 603.586,70.5041 603.5,71.5 Z"/></g>
<g><path style="opacity:0.42" fill="#fefffe" d="M 1068.5,71.5 C 1068.17,71.5 1067.83,71.5 1067.5,71.5C 971.332,71.1672 875.332,71.5006 779.5,72.5C 778.833,72.5 778.5,72.8333 778.5,73.5C 777.552,69.919 779.218,68.0857 783.5,68C 878.521,67.1763 973.521,67.3429 1068.5,68.5C 1068.5,69.5 1068.5,70.5 1068.5,71.5 Z"/></g>
<g><path style="opacity:1" fill="#ea45ef" d="M 280.5,71.5 C 281.492,71.3284 282.158,71.6618 282.5,72.5C 280.95,73.4408 279.284,74.1075 277.5,74.5C 241.627,73.1768 205.627,73.1768 169.5,74.5C 169.5,73.5 169.5,72.5 169.5,71.5C 206.5,71.5 243.5,71.5 280.5,71.5 Z"/></g>
<g><path style="opacity:0.069" fill="#fefffe" d="M 283.5,72.5 C 284.833,72.5 285.5,73.1667 285.5,74.5C 285.167,74.5 284.833,74.5 284.5,74.5C 284.167,73.8333 283.833,73.1667 283.5,72.5 Z"/></g>
<g><path style="opacity:1" fill="#ea45ef" d="M 603.5,71.5 C 604.492,71.3284 605.158,71.6618 605.5,72.5C 603.95,73.4408 602.284,74.1075 600.5,74.5C 564.627,73.1768 528.627,73.1768 492.5,74.5C 492.5,73.5 492.5,72.5 492.5,71.5C 529.5,71.5 566.5,71.5 603.5,71.5 Z"/></g>
<g><path style="opacity:0.063" fill="#fefffe" d="M 606.5,72.5 C 607.833,72.5 608.5,73.1667 608.5,74.5C 608.167,74.5 607.833,74.5 607.5,74.5C 607.167,73.8333 606.833,73.1667 606.5,72.5 Z"/></g>
<g><path style="opacity:1" fill="#e944ee" d="M 1067.5,71.5 C 1067.07,72.7095 1066.4,73.7095 1065.5,74.5C 970.627,73.1681 875.627,73.1681 780.5,74.5C 779.702,74.0431 779.369,73.3764 779.5,72.5C 875.332,71.5006 971.332,71.1672 1067.5,71.5 Z"/></g>
<g><path style="opacity:1" fill="#dc3ad3" d="M 1067.5,71.5 C 1067.83,71.5 1068.17,71.5 1068.5,71.5C 1071.03,71.2591 1072.7,72.2591 1073.5,74.5C 1072.83,76.5 1072.17,78.5 1071.5,80.5C 1071.8,78.396 1071.47,76.396 1070.5,74.5C 1068.28,85.162 1066.28,95.8287 1064.5,106.5C 1062.17,121.833 1059.83,137.167 1057.5,152.5C 1055.5,152.5 1053.5,152.5 1051.5,152.5C 1051.49,155.545 1051.16,158.545 1050.5,161.5C 1022.5,161.333 994.498,161.5 966.5,162C 963.746,162.599 961.746,164.099 960.5,166.5C 960.5,165.5 960.5,164.5 960.5,163.5C 961.683,162.496 963.016,161.662 964.5,161C 991.831,160.5 1019.16,160.333 1046.5,160.5C 1047.5,160.5 1048.5,160.5 1049.5,160.5C 1053.4,133.1 1057.73,105.767 1062.5,78.5C 1061.5,78.5 1060.5,78.5 1059.5,78.5C 968.167,78.5 876.833,78.5 785.5,78.5C 782.157,100.892 778.49,123.226 774.5,145.5C 773.508,150.452 772.842,155.452 772.5,160.5C 801.169,160.333 829.835,160.5 858.5,161C 859.571,161.852 860.571,162.685 861.5,163.5C 862.431,165.033 863.098,166.7 863.5,168.5C 860.581,181.019 858.581,193.685 857.5,206.5C 856.412,212.021 855.412,217.688 854.5,223.5C 853.743,229.232 852.743,234.899 851.5,240.5C 850.616,245.804 849.949,251.137 849.5,256.5C 849.073,259.01 848.407,261.343 847.5,263.5C 848.606,251.428 850.272,239.428 852.5,227.5C 852.253,226.287 851.586,225.62 850.5,225.5C 852.84,207.795 855.506,190.128 858.5,172.5C 858.841,169.492 857.841,168.492 855.5,169.5C 855.5,169.167 855.5,168.833 855.5,168.5C 854.194,167.533 853.527,166.199 853.5,164.5C 824.498,164.333 795.498,164.5 766.5,165C 765.619,165.708 764.953,166.542 764.5,167.5C 763.596,166.791 763.263,165.791 763.5,164.5C 763.833,163.833 764.167,163.167 764.5,162.5C 764.833,162.5 765.167,162.5 765.5,162.5C 766.496,162.586 767.329,162.252 768,161.5C 772.733,132.768 777.566,104.101 782.5,75.5C 876.665,74.5006 970.999,74.1673 1065.5,74.5C 1066.4,73.7095 1067.07,72.7095 1067.5,71.5 Z"/></g>
<g><path style="opacity:1" fill="#d736ce" d="M 282.5,72.5 C 282.833,72.5 283.167,72.5 283.5,72.5C 283.833,73.1667 284.167,73.8333 284.5,74.5C 284.795,76.7354 284.461,78.7354 283.5,80.5C 283.257,73.4308 282.423,73.0974 281,79.5C 273.393,128.255 265.56,176.922 257.5,225.5C 255.114,225.259 253.114,225.925 251.5,227.5C 258.52,177.732 266.187,128.066 274.5,78.5C 273.5,78.5 272.5,78.5 271.5,78.5C 239.5,78.5 207.5,78.5 175.5,78.5C 172.685,100.908 169.352,123.241 165.5,145.5C 164.497,151.536 163.497,157.536 162.5,163.5C 160.254,177.802 158.254,192.136 156.5,206.5C 155.607,210.191 154.607,213.858 153.5,217.5C 153.755,211.129 154.421,204.795 155.5,198.5C 155.767,196.024 155.101,195.357 153.5,196.5C 159.576,156.21 166.243,116.043 173.5,76C 208.336,75.8325 243.002,75.3325 277.5,74.5C 279.284,74.1075 280.95,73.4408 282.5,72.5 Z"/></g>
<g><path style="opacity:1" fill="#d837cf" d="M 605.5,72.5 C 605.833,72.5 606.167,72.5 606.5,72.5C 606.833,73.1667 607.167,73.8333 607.5,74.5C 607.802,78.7905 607.136,82.7905 605.5,86.5C 606.367,82.4647 606.367,78.4647 605.5,74.5C 604.453,78.1124 603.62,81.7791 603,85.5C 596.789,126.027 590.289,166.36 583.5,206.5C 582.081,205.549 580.415,205.216 578.5,205.5C 578.923,207.781 578.256,209.448 576.5,210.5C 583.137,166.766 590.137,123.099 597.5,79.5C 596.675,78.6143 595.675,78.281 594.5,78.5C 562.5,78.5 530.5,78.5 498.5,78.5C 495.412,100.873 492.078,123.206 488.5,145.5C 487.663,151.526 486.663,157.526 485.5,163.5C 482.766,177.039 480.766,190.706 479.5,204.5C 478.833,206.5 478.167,208.5 477.5,210.5C 477.393,206.465 477.726,202.465 478.5,198.5C 478.36,196.97 477.693,195.97 476.5,195.5C 482.803,155.566 489.469,115.733 496.5,76C 531.336,75.8325 566.002,75.3325 600.5,74.5C 602.284,74.1075 603.95,73.4408 605.5,72.5 Z"/></g>
<g><path style="opacity:1" fill="#f07afb" d="M 779.5,72.5 C 779.369,73.3764 779.702,74.0431 780.5,74.5C 875.627,73.1681 970.627,73.1681 1065.5,74.5C 970.999,74.1673 876.665,74.5006 782.5,75.5C 781.351,75.7911 780.684,76.6244 780.5,78C 775.39,106.164 770.39,134.331 765.5,162.5C 765.167,162.5 764.833,162.5 764.5,162.5C 769.058,132.816 773.725,103.15 778.5,73.5C 778.5,72.8333 778.833,72.5 779.5,72.5 Z"/></g>
<g><path style="opacity:0.966" fill="#7f2e9e" d="M 1073.5,74.5 C 1077.81,78.1456 1081.81,82.1456 1085.5,86.5C 1079.98,118.132 1074.65,149.799 1069.5,181.5C 1040.17,181.5 1010.83,181.5 981.5,181.5C 964.509,287.113 947.842,392.78 931.5,498.5C 894.165,498.667 856.832,498.5 819.5,498C 816.297,494.629 812.964,491.462 809.5,488.5C 809.5,488.167 809.5,487.833 809.5,487.5C 845.168,487.667 880.835,487.5 916.5,487C 917.667,485.833 918.833,484.667 920,483.5C 921.379,476.893 922.213,470.227 922.5,463.5C 922.5,462.833 922.5,462.167 922.5,461.5C 926.693,443.498 929.693,425.165 931.5,406.5C 940.175,358.457 947.841,310.124 954.5,261.5C 954.5,260.833 954.5,260.167 954.5,259.5C 955.222,259.082 955.722,258.416 956,257.5C 957.271,250.544 958.104,243.544 958.5,236.5C 958.5,236.167 958.5,235.833 958.5,235.5C 963.002,214.816 966.335,193.816 968.5,172.5C 969.289,172.217 969.956,171.717 970.5,171C 998.833,170.667 1027.17,170.333 1055.5,170C 1056.7,169.097 1057.53,167.931 1058,166.5C 1058.55,162.83 1059.05,159.163 1059.5,155.5C 1059.33,153.379 1059.66,151.379 1060.5,149.5C 1062.37,139.633 1064.03,129.633 1065.5,119.5C 1065.5,119.167 1065.5,118.833 1065.5,118.5C 1068.31,106.044 1070.31,93.3774 1071.5,80.5C 1072.17,78.5 1072.83,76.5 1073.5,74.5 Z"/></g>
<g><path style="opacity:0.963" fill="#7e2e9d" d="M 284.5,74.5 C 284.833,74.5 285.167,74.5 285.5,74.5C 288.796,78.2976 292.296,81.9643 296,85.5C 275.297,223.252 253.797,360.919 231.5,498.5C 193.832,498.667 156.165,498.5 118.5,498C 115.297,494.629 111.964,491.462 108.5,488.5C 108.5,488.167 108.5,487.833 108.5,487.5C 144.835,487.667 181.168,487.5 217.5,487C 218.973,486.29 219.64,485.124 219.5,483.5C 222.027,475.834 223.36,467.834 223.5,459.5C 234.175,398.79 243.841,337.79 252.5,276.5C 258.802,242.406 264.469,208.073 269.5,173.5C 270.966,163.507 272.299,153.507 273.5,143.5C 276.838,129.49 279.171,115.157 280.5,100.5C 281.71,93.9037 282.71,87.237 283.5,80.5C 284.461,78.7354 284.795,76.7354 284.5,74.5 Z"/></g>
<g><path style="opacity:0.963" fill="#7e2e9d" d="M 607.5,74.5 C 607.833,74.5 608.167,74.5 608.5,74.5C 611.796,78.2976 615.296,81.9643 619,85.5C 598.156,223.231 576.656,360.897 554.5,498.5C 516.832,498.667 479.165,498.5 441.5,498C 438.297,494.629 434.964,491.462 431.5,488.5C 431.5,488.167 431.5,487.833 431.5,487.5C 467.839,487.833 504.173,487.5 540.5,486.5C 542.703,484.705 543.869,482.371 544,479.5C 545.095,474.22 545.595,468.887 545.5,463.5C 554.12,418.178 561.453,372.511 567.5,326.5C 569.935,318.473 571.268,310.14 571.5,301.5C 571.5,300.833 571.5,300.167 571.5,299.5C 577.105,273.198 581.439,246.531 584.5,219.5C 585.49,215.228 586.156,210.894 586.5,206.5C 593.452,169.115 599.452,131.449 604.5,93.5C 605.369,91.283 605.702,88.9496 605.5,86.5C 607.136,82.7905 607.802,78.7905 607.5,74.5 Z"/></g>
<g><path style="opacity:1" fill="#fd6cca" d="M 271.5,78.5 C 267.918,100.815 264.251,123.149 260.5,145.5C 228.833,145.5 197.167,145.5 165.5,145.5C 169.352,123.241 172.685,100.908 175.5,78.5C 207.5,78.5 239.5,78.5 271.5,78.5 Z"/></g>
<g><path style="opacity:1" fill="#fd6cca" d="M 594.5,78.5 C 590.589,100.784 586.922,123.117 583.5,145.5C 551.833,145.5 520.167,145.5 488.5,145.5C 492.078,123.206 495.412,100.873 498.5,78.5C 530.5,78.5 562.5,78.5 594.5,78.5 Z"/></g>
<g><path style="opacity:1" fill="#fd6cca" d="M 1059.5,78.5 C 1055.73,100.815 1052.06,123.148 1048.5,145.5C 957.167,145.5 865.833,145.5 774.5,145.5C 778.49,123.226 782.157,100.892 785.5,78.5C 876.833,78.5 968.167,78.5 1059.5,78.5 Z"/></g>
<g><path style="opacity:1" fill="#fee4f6" d="M 1059.5,78.5 C 1060.5,78.5 1061.5,78.5 1062.5,78.5C 1057.73,105.767 1053.4,133.1 1049.5,160.5C 1048.5,160.5 1047.5,160.5 1046.5,160.5C 1046.63,155.414 1047.29,150.414 1048.5,145.5C 1052.06,123.148 1055.73,100.815 1059.5,78.5 Z"/></g>
<g><path style="opacity:1" fill="#f04bfc" d="M 277.5,74.5 C 243.002,75.3325 208.336,75.8325 173.5,76C 166.243,116.043 159.576,156.21 153.5,196.5C 149.176,222.112 145.176,247.779 141.5,273.5C 140.228,280.134 139.061,286.801 138,293.5C 137.722,294.416 137.222,295.082 136.5,295.5C 147.138,222.341 158.638,149.341 171,76.5C 171.5,76 172,75.5 172.5,75C 207.498,74.5 242.498,74.3333 277.5,74.5 Z"/></g>
<g><path style="opacity:1" fill="#f375f8" d="M 605.5,86.5 C 605.702,88.9496 605.369,91.283 604.5,93.5C 597.958,130.949 591.958,168.616 586.5,206.5C 586.156,210.894 585.49,215.228 584.5,219.5C 579.739,246.067 575.406,272.734 571.5,299.5C 571.5,300.167 571.5,300.833 571.5,301.5C 569.624,309.616 568.291,317.949 567.5,326.5C 560.292,370.747 552.959,415.08 545.5,459.5C 544.833,460.5 544.167,461.5 543.5,462.5C 550.243,420.89 556.576,379.223 562.5,337.5C 565.557,323.411 567.891,309.078 569.5,294.5C 572.044,280.569 574.377,266.569 576.5,252.5C 579.091,237.21 581.425,221.876 583.5,206.5C 590.289,166.36 596.789,126.027 603,85.5C 603.62,81.7791 604.453,78.1124 605.5,74.5C 606.367,78.4647 606.367,82.4647 605.5,86.5 Z"/></g>
<g><path style="opacity:1" fill="#ba43e2" d="M 604.5,93.5 C 599.452,131.449 593.452,169.115 586.5,206.5C 591.958,168.616 597.958,130.949 604.5,93.5 Z"/></g>
<g><path style="opacity:1" fill="#e762f4" d="M 1071.5,80.5 C 1070.31,93.3774 1068.31,106.044 1065.5,118.5C 1065.82,114.298 1065.48,110.298 1064.5,106.5C 1066.28,95.8287 1068.28,85.162 1070.5,74.5C 1071.47,76.396 1071.8,78.396 1071.5,80.5 Z"/></g>
<g><path style="opacity:1" fill="#bf45e4" d="M 280.5,100.5 C 279.171,115.157 276.838,129.49 273.5,143.5C 275.31,128.975 277.644,114.641 280.5,100.5 Z"/></g>
<g><path style="opacity:1" fill="#f14cfc" d="M 782.5,75.5 C 777.566,104.101 772.733,132.768 768,161.5C 767.329,162.252 766.496,162.586 765.5,162.5C 770.39,134.331 775.39,106.164 780.5,78C 780.684,76.6244 781.351,75.7911 782.5,75.5 Z"/></g>
<g><path style="opacity:1" fill="#cd4bed" d="M 1065.5,119.5 C 1064.03,129.633 1062.37,139.633 1060.5,149.5C 1060.74,139.127 1062.4,129.127 1065.5,119.5 Z"/></g>
<g><path style="opacity:1" fill="#eb7af6" d="M 277.5,74.5 C 242.498,74.3333 207.498,74.5 172.5,75C 172,75.5 171.5,76 171,76.5C 158.638,149.341 147.138,222.341 136.5,295.5C 135.833,301.5 135.167,307.5 134.5,313.5C 133.852,315.498 133.019,317.498 132,319.5C 130.578,328.44 129.578,337.44 129,346.5C 128.768,347.737 128.268,348.737 127.5,349.5C 128.194,344.195 128.528,338.862 128.5,333.5C 141.631,247.047 155.298,160.713 169.5,74.5C 205.627,73.1768 241.627,73.1768 277.5,74.5 Z"/></g>
<g><path style="opacity:1" fill="#eb7bf5" d="M 600.5,74.5 C 565.123,74.1734 529.79,74.5068 494.5,75.5C 487.191,115.355 480.524,155.355 474.5,195.5C 474.36,197.03 473.693,198.03 472.5,198.5C 479.05,157.199 485.384,115.866 491.5,74.5C 491.833,74.5 492.167,74.5 492.5,74.5C 528.627,73.1768 564.627,73.1768 600.5,74.5 Z"/></g>
<g><path style="opacity:1" fill="#f766c9" d="M 165.5,145.5 C 197.167,145.5 228.833,145.5 260.5,145.5C 259.931,151.582 258.931,157.582 257.5,163.5C 225.833,163.5 194.167,163.5 162.5,163.5C 163.497,157.536 164.497,151.536 165.5,145.5 Z"/></g>
<g><path style="opacity:1" fill="#f275f4" d="M 1064.5,106.5 C 1065.48,110.298 1065.82,114.298 1065.5,118.5C 1065.5,118.833 1065.5,119.167 1065.5,119.5C 1062.4,129.127 1060.74,139.127 1060.5,149.5C 1059.66,151.379 1059.33,153.379 1059.5,155.5C 1057.86,158.488 1057.03,161.821 1057,165.5C 1056.62,164.944 1056.12,164.611 1055.5,164.5C 1055.74,160.394 1056.41,156.394 1057.5,152.5C 1059.83,137.167 1062.17,121.833 1064.5,106.5 Z"/></g>
<g><path style="opacity:1" fill="#f04dfb" d="M 600.5,74.5 C 566.002,75.3325 531.336,75.8325 496.5,76C 489.469,115.733 482.803,155.566 476.5,195.5C 473.165,216.179 469.831,236.845 466.5,257.5C 465.079,270.487 462.746,283.154 459.5,295.5C 462.439,281.001 464.106,266.334 464.5,251.5C 464.705,246.728 465.372,242.062 466.5,237.5C 467.79,236.942 468.623,235.942 469,234.5C 471.02,223.242 472.186,211.908 472.5,200.5C 472.5,199.833 472.5,199.167 472.5,198.5C 473.693,198.03 474.36,197.03 474.5,195.5C 480.524,155.355 487.191,115.355 494.5,75.5C 529.79,74.5068 565.123,74.1734 600.5,74.5 Z"/></g>
<g><path style="opacity:1" fill="#f766c9" d="M 488.5,145.5 C 520.167,145.5 551.833,145.5 583.5,145.5C 582.497,151.535 581.497,157.535 580.5,163.5C 548.833,163.5 517.167,163.5 485.5,163.5C 486.663,157.526 487.663,151.526 488.5,145.5 Z"/></g>
<g><path style="opacity:1" fill="#f767c9" d="M 774.5,145.5 C 865.833,145.5 957.167,145.5 1048.5,145.5C 1047.29,150.414 1046.63,155.414 1046.5,160.5C 1019.16,160.333 991.831,160.5 964.5,161C 963.016,161.662 961.683,162.496 960.5,163.5C 927.5,163.5 894.5,163.5 861.5,163.5C 860.571,162.685 859.571,161.852 858.5,161C 829.835,160.5 801.169,160.333 772.5,160.5C 772.842,155.452 773.508,150.452 774.5,145.5 Z"/></g>
<g><path style="opacity:1" fill="#fae1f5" d="M 271.5,78.5 C 272.5,78.5 273.5,78.5 274.5,78.5C 266.187,128.066 258.52,177.732 251.5,227.5C 249.167,240.167 246.833,252.833 244.5,265.5C 244.843,263.517 244.176,262.183 242.5,261.5C 242.674,259.139 243.007,256.806 243.5,254.5C 244.092,251.873 244.425,249.206 244.5,246.5C 244.833,244.5 245.167,242.5 245.5,240.5C 246.225,234.753 247.225,229.086 248.5,223.5C 249.427,217.866 250.093,212.199 250.5,206.5C 253.152,192.252 255.486,177.919 257.5,163.5C 258.931,157.582 259.931,151.582 260.5,145.5C 264.251,123.149 267.918,100.815 271.5,78.5 Z"/></g>
<g><path style="opacity:1" fill="#f9e2f5" d="M 594.5,78.5 C 595.675,78.281 596.675,78.6143 597.5,79.5C 590.137,123.099 583.137,166.766 576.5,210.5C 574.037,226.15 571.703,241.816 569.5,257.5C 567.762,265.73 566.428,274.063 565.5,282.5C 564.833,284.833 564.167,287.167 563.5,289.5C 563.5,288.167 562.833,287.5 561.5,287.5C 561.5,286.833 561.5,286.167 561.5,285.5C 561.5,283.833 561.5,282.167 561.5,280.5C 562.268,278.285 562.935,275.952 563.5,273.5C 563.325,271.379 563.659,269.379 564.5,267.5C 564.517,265.435 564.85,263.435 565.5,261.5C 565.298,259.05 565.631,256.717 566.5,254.5C 566.575,251.794 566.908,249.127 567.5,246.5C 567.833,244.5 568.167,242.5 568.5,240.5C 569.181,234.743 570.181,229.077 571.5,223.5C 572.249,217.845 572.915,212.178 573.5,206.5C 576.212,192.265 578.546,177.932 580.5,163.5C 581.497,157.535 582.497,151.535 583.5,145.5C 586.922,123.117 590.589,100.784 594.5,78.5 Z"/></g>
<g><path style="opacity:1" fill="#ce31cb" d="M 1057.5,152.5 C 1056.41,156.394 1055.74,160.394 1055.5,164.5C 1054.58,164.018 1053.58,163.685 1052.5,163.5C 1023.86,164.317 995.19,164.817 966.5,165C 965.248,166.828 965.248,168.661 966.5,170.5C 963.255,188.793 960.255,207.127 957.5,225.5C 954.325,224.909 951.991,225.909 950.5,228.5C 953.608,208.851 956.608,189.185 959.5,169.5C 960.404,168.791 960.737,167.791 960.5,166.5C 961.746,164.099 963.746,162.599 966.5,162C 994.498,161.5 1022.5,161.333 1050.5,161.5C 1051.16,158.545 1051.49,155.545 1051.5,152.5C 1053.5,152.5 1055.5,152.5 1057.5,152.5 Z"/></g>
<g><path style="opacity:0.304" fill="#fefffe" d="M 763.5,164.5 C 763.263,165.791 763.596,166.791 764.5,167.5C 764.5,168.167 764.833,168.5 765.5,168.5C 765.833,169.5 766.5,170.167 767.5,170.5C 767.5,170.833 767.5,171.167 767.5,171.5C 762.994,172.473 760.828,170.806 761,166.5C 761.708,165.619 762.542,164.953 763.5,164.5 Z"/></g>
<g><path style="opacity:1" fill="#e553fd" d="M 855.5,168.5 C 853.95,169.441 852.284,170.107 850.5,170.5C 822.833,169.833 795.167,169.167 767.5,168.5C 795.5,168.5 823.5,168.5 851.5,168.5C 851.5,167.5 851.5,166.5 851.5,165.5C 823.498,165.333 795.498,165.5 767.5,166C 766.619,166.708 765.953,167.542 765.5,168.5C 764.833,168.5 764.5,168.167 764.5,167.5C 764.953,166.542 765.619,165.708 766.5,165C 795.498,164.5 824.498,164.333 853.5,164.5C 853.527,166.199 854.194,167.533 855.5,168.5 Z"/></g>
<g><path style="opacity:1" fill="#ec5bfd" d="M 1059.5,155.5 C 1059.05,159.163 1058.55,162.83 1058,166.5C 1057.53,167.931 1056.7,169.097 1055.5,170C 1027.17,170.333 998.833,170.667 970.5,171C 969.956,171.717 969.289,172.217 968.5,172.5C 968.5,171.167 967.833,170.5 966.5,170.5C 965.248,168.661 965.248,166.828 966.5,165C 995.19,164.817 1023.86,164.317 1052.5,163.5C 1053.58,163.685 1054.58,164.018 1055.5,164.5C 1056.12,164.611 1056.62,164.944 1057,165.5C 1057.03,161.821 1057.86,158.488 1059.5,155.5 Z"/></g>
<g><path style="opacity:1" fill="#d35fe4" d="M 767.5,168.5 C 766.833,168.5 766.167,168.5 765.5,168.5C 765.953,167.542 766.619,166.708 767.5,166C 795.498,165.5 823.498,165.333 851.5,165.5C 851.5,166.5 851.5,167.5 851.5,168.5C 823.5,168.5 795.5,168.5 767.5,168.5 Z"/></g>
<g><path style="opacity:1" fill="#d45fe5" d="M 967.5,165.5 C 996.167,165.5 1024.83,165.5 1053.5,165.5C 1053.5,166.5 1053.5,167.5 1053.5,168.5C 1024.83,168.667 996.165,168.5 967.5,168C 966.402,167.23 966.402,166.397 967.5,165.5 Z"/></g>
<g><path style="opacity:1" fill="#f9dff4" d="M 959.5,169.5 C 956.608,189.185 953.608,208.851 950.5,228.5C 950.142,231.689 949.475,234.689 948.5,237.5C 948.631,236.624 948.298,235.957 947.5,235.5C 946.828,236.949 946.161,238.282 945.5,239.5C 946.167,234.167 946.833,228.833 947.5,223.5C 948.588,217.979 949.588,212.312 950.5,206.5C 952.607,193.526 954.607,180.526 956.5,167.5C 958.179,167.285 959.179,167.952 959.5,169.5 Z"/></g>
<g><path style="opacity:0.997" fill="#812fa1" d="M 855.5,168.5 C 855.5,168.833 855.5,169.167 855.5,169.5C 855.5,170.167 855.5,170.833 855.5,171.5C 854.706,174.802 854.04,178.135 853.5,181.5C 828.164,181.667 802.831,181.5 777.5,181C 774.297,177.629 770.964,174.462 767.5,171.5C 767.5,171.167 767.5,170.833 767.5,170.5C 795.167,170.5 822.833,170.5 850.5,170.5C 852.284,170.107 853.95,169.441 855.5,168.5 Z"/></g>
<g><path style="opacity:1" fill="#fe75ff" d="M 765.5,168.5 C 766.167,168.5 766.833,168.5 767.5,168.5C 795.167,169.167 822.833,169.833 850.5,170.5C 822.833,170.5 795.167,170.5 767.5,170.5C 766.5,170.167 765.833,169.5 765.5,168.5 Z"/></g>
<g><path style="opacity:1" fill="#ea5bc4" d="M 162.5,163.5 C 194.167,163.5 225.833,163.5 257.5,163.5C 255.486,177.919 253.152,192.252 250.5,206.5C 219.167,206.5 187.833,206.5 156.5,206.5C 158.254,192.136 160.254,177.802 162.5,163.5 Z"/></g>
<g><path style="opacity:1" fill="#ea5bc4" d="M 485.5,163.5 C 517.167,163.5 548.833,163.5 580.5,163.5C 578.546,177.932 576.212,192.265 573.5,206.5C 541.816,207.159 510.482,206.493 479.5,204.5C 480.766,190.706 482.766,177.039 485.5,163.5 Z"/></g>
<g><path style="opacity:1" fill="#ea5bc4" d="M 861.5,163.5 C 894.5,163.5 927.5,163.5 960.5,163.5C 960.5,164.5 960.5,165.5 960.5,166.5C 960.737,167.791 960.404,168.791 959.5,169.5C 959.179,167.952 958.179,167.285 956.5,167.5C 954.607,180.526 952.607,193.526 950.5,206.5C 919.5,206.5 888.5,206.5 857.5,206.5C 858.581,193.685 860.581,181.019 863.5,168.5C 863.098,166.7 862.431,165.033 861.5,163.5 Z"/></g>
<g><path style="opacity:1" fill="#ba44e2" d="M 269.5,173.5 C 264.469,208.073 258.802,242.406 252.5,276.5C 257.22,241.847 262.887,207.514 269.5,173.5 Z"/></g>
<g><path style="opacity:1" fill="#bb44e3" d="M 968.5,172.5 C 966.335,193.816 963.002,214.816 958.5,235.5C 961.314,214.286 964.648,193.286 968.5,172.5 Z"/></g>
<g><path style="opacity:1" fill="#e974f2" d="M 855.5,171.5 C 856.139,172.097 856.472,172.93 856.5,174C 854.942,185.793 852.609,197.293 849.5,208.5C 850.509,199.448 851.842,190.448 853.5,181.5C 854.04,178.135 854.706,174.802 855.5,171.5 Z"/></g>
<g><path style="opacity:1" fill="#bf30c8" d="M 476.5,195.5 C 477.693,195.97 478.36,196.97 478.5,198.5C 477.726,202.465 477.393,206.465 477.5,210.5C 477.414,214.857 477.08,219.19 476.5,223.5C 475.101,228.971 474.101,234.638 473.5,240.5C 473.167,242.5 472.833,244.5 472.5,246.5C 472.672,247.492 472.338,248.158 471.5,248.5C 470.734,250.684 470.067,253.018 469.5,255.5C 468.643,256.425 467.643,257.092 466.5,257.5C 469.831,236.845 473.165,216.179 476.5,195.5 Z"/></g>
<g><path style="opacity:1" fill="#ea71f3" d="M 472.5,200.5 C 472.186,211.908 471.02,223.242 469,234.5C 468.623,235.942 467.79,236.942 466.5,237.5C 467.981,224.952 469.981,212.619 472.5,200.5 Z"/></g>
<g><path style="opacity:1" fill="#db58c2" d="M 156.5,206.5 C 187.833,206.5 219.167,206.5 250.5,206.5C 250.093,212.199 249.427,217.866 248.5,223.5C 216.833,223.5 185.167,223.5 153.5,223.5C 153.5,221.5 153.5,219.5 153.5,217.5C 154.607,213.858 155.607,210.191 156.5,206.5 Z"/></g>
<g><path style="opacity:1" fill="#db58c2" d="M 479.5,204.5 C 510.482,206.493 541.816,207.159 573.5,206.5C 572.915,212.178 572.249,217.845 571.5,223.5C 539.833,223.5 508.167,223.5 476.5,223.5C 477.08,219.19 477.414,214.857 477.5,210.5C 478.167,208.5 478.833,206.5 479.5,204.5 Z"/></g>
<g><path style="opacity:1" fill="#db58c2" d="M 857.5,206.5 C 888.5,206.5 919.5,206.5 950.5,206.5C 949.588,212.312 948.588,217.979 947.5,223.5C 916.5,223.5 885.5,223.5 854.5,223.5C 855.412,217.688 856.412,212.021 857.5,206.5 Z"/></g>
<g><path style="opacity:1" fill="#bb2fc8" d="M 153.5,217.5 C 153.5,219.5 153.5,221.5 153.5,223.5C 152.399,229.018 151.399,234.685 150.5,240.5C 150.672,241.492 150.338,242.158 149.5,242.5C 147.471,251.99 145.638,261.656 144,271.5C 143.583,272.756 142.75,273.423 141.5,273.5C 145.176,247.779 149.176,222.112 153.5,196.5C 155.101,195.357 155.767,196.024 155.5,198.5C 154.421,204.795 153.755,211.129 153.5,217.5 Z"/></g>
<g><path style="opacity:1" fill="#bb33c7" d="M 583.5,206.5 C 581.425,221.876 579.091,237.21 576.5,252.5C 572.114,251.574 569.78,253.241 569.5,257.5C 571.703,241.816 574.037,226.15 576.5,210.5C 578.256,209.448 578.923,207.781 578.5,205.5C 580.415,205.216 582.081,205.549 583.5,206.5 Z"/></g>
<g><path style="opacity:1" fill="#bc44e3" d="M 584.5,219.5 C 581.439,246.531 577.105,273.198 571.5,299.5C 575.406,272.734 579.739,246.067 584.5,219.5 Z"/></g>
<g><path style="opacity:1" fill="#e971f4" d="M 849.5,209.5 C 849.395,223.404 847.561,237.071 844,250.5C 843.617,251.056 843.117,251.389 842.5,251.5C 844.422,237.302 846.755,223.302 849.5,209.5 Z"/></g>
<g><path style="opacity:1" fill="#cd5fc3" d="M 153.5,223.5 C 185.167,223.5 216.833,223.5 248.5,223.5C 247.225,229.086 246.225,234.753 245.5,240.5C 213.833,240.5 182.167,240.5 150.5,240.5C 151.399,234.685 152.399,229.018 153.5,223.5 Z"/></g>
<g><path style="opacity:1" fill="#cd5fc3" d="M 476.5,223.5 C 508.167,223.5 539.833,223.5 571.5,223.5C 570.181,229.077 569.181,234.743 568.5,240.5C 536.833,240.5 505.167,240.5 473.5,240.5C 474.101,234.638 475.101,228.971 476.5,223.5 Z"/></g>
<g><path style="opacity:1" fill="#cd5fc3" d="M 854.5,223.5 C 885.5,223.5 916.5,223.5 947.5,223.5C 946.833,228.833 946.167,234.167 945.5,239.5C 945.5,239.833 945.5,240.167 945.5,240.5C 914.167,240.5 882.833,240.5 851.5,240.5C 852.743,234.899 853.743,229.232 854.5,223.5 Z"/></g>
<g><path style="opacity:1" fill="#b22cc8" d="M 850.5,225.5 C 851.586,225.62 852.253,226.287 852.5,227.5C 850.272,239.428 848.606,251.428 847.5,263.5C 846.895,266.305 845.562,268.639 843.5,270.5C 845.098,255.252 847.432,240.252 850.5,225.5 Z"/></g>
<g><path style="opacity:1" fill="#b331c7" d="M 957.5,225.5 C 955.858,237.688 953.858,249.688 951.5,261.5C 949.833,261.5 948.167,261.5 946.5,261.5C 945.87,265.048 944.87,268.381 943.5,271.5C 945.458,260.211 947.125,248.877 948.5,237.5C 949.475,234.689 950.142,231.689 950.5,228.5C 951.991,225.909 954.325,224.909 957.5,225.5 Z"/></g>
<g><path style="opacity:1" fill="#c565c5" d="M 150.5,240.5 C 182.167,240.5 213.833,240.5 245.5,240.5C 245.167,242.5 244.833,244.5 244.5,246.5C 212.833,246.5 181.167,246.5 149.5,246.5C 149.5,245.167 149.5,243.833 149.5,242.5C 150.338,242.158 150.672,241.492 150.5,240.5 Z"/></g>
<g><path style="opacity:1" fill="#c565c5" d="M 473.5,240.5 C 505.167,240.5 536.833,240.5 568.5,240.5C 568.167,242.5 567.833,244.5 567.5,246.5C 535.833,246.5 504.167,246.5 472.5,246.5C 472.833,244.5 473.167,242.5 473.5,240.5 Z"/></g>
<g><path style="opacity:1" fill="#bf46e4" d="M 958.5,236.5 C 958.104,243.544 957.271,250.544 956,257.5C 955.722,258.416 955.222,259.082 954.5,259.5C 954.335,256.482 954.502,253.482 955,250.5C 956.307,245.81 957.474,241.144 958.5,236.5 Z"/></g>
<g><path style="opacity:1" fill="#be6bc6" d="M 149.5,246.5 C 181.167,246.5 212.833,246.5 244.5,246.5C 244.425,249.206 244.092,251.873 243.5,254.5C 211.833,254.5 180.167,254.5 148.5,254.5C 148.833,251.833 149.167,249.167 149.5,246.5 Z"/></g>
<g><path style="opacity:1" fill="#be6bc6" d="M 472.5,246.5 C 504.167,246.5 535.833,246.5 567.5,246.5C 566.908,249.127 566.575,251.794 566.5,254.5C 534.833,254.5 503.167,254.5 471.5,254.5C 471.5,252.5 471.5,250.5 471.5,248.5C 472.338,248.158 472.672,247.492 472.5,246.5 Z"/></g>
<g><path style="opacity:1" fill="#c069c6" d="M 851.5,240.5 C 882.833,240.5 914.167,240.5 945.5,240.5C 944.285,245.787 943.285,251.12 942.5,256.5C 911.5,256.5 880.5,256.5 849.5,256.5C 849.949,251.137 850.616,245.804 851.5,240.5 Z"/></g>
<g><path style="opacity:1" fill="#b772c8" d="M 148.5,254.5 C 180.167,254.5 211.833,254.5 243.5,254.5C 243.007,256.806 242.674,259.139 242.5,261.5C 242.5,262.167 242.167,262.5 241.5,262.5C 209.76,262.175 178.093,262.508 146.5,263.5C 147.167,260.5 147.833,257.5 148.5,254.5 Z"/></g>
<g><path style="opacity:1" fill="#b772c8" d="M 471.5,254.5 C 503.167,254.5 534.833,254.5 566.5,254.5C 565.631,256.717 565.298,259.05 565.5,261.5C 533.907,262.492 502.24,262.825 470.5,262.5C 470.401,259.763 470.735,257.096 471.5,254.5 Z"/></g>
<g><path style="opacity:1" fill="#ab33c8" d="M 257.5,225.5 C 255.344,244.431 252.344,263.097 248.5,281.5C 246.833,281.5 245.167,281.5 243.5,281.5C 243.737,282.791 243.404,283.791 242.5,284.5C 242.646,278.106 243.313,271.773 244.5,265.5C 246.833,252.833 249.167,240.167 251.5,227.5C 253.114,225.925 255.114,225.259 257.5,225.5 Z"/></g>
<g><path style="opacity:1" fill="#b078c9" d="M 241.5,262.5 C 241.5,264.167 241.5,265.833 241.5,267.5C 209.833,267.5 178.167,267.5 146.5,267.5C 146.5,266.167 146.5,264.833 146.5,263.5C 178.093,262.508 209.76,262.175 241.5,262.5 Z"/></g>
<g><path style="opacity:1" fill="#b078ca" d="M 565.5,261.5 C 564.85,263.435 564.517,265.435 564.5,267.5C 532.833,267.5 501.167,267.5 469.5,267.5C 469.216,265.585 469.549,263.919 470.5,262.5C 502.24,262.825 533.907,262.492 565.5,261.5 Z"/></g>
<g><path style="opacity:1" fill="#b276c9" d="M 849.5,256.5 C 880.5,256.5 911.5,256.5 942.5,256.5C 942.341,260.291 941.675,263.958 940.5,267.5C 909.5,267.5 878.5,267.5 847.5,267.5C 847.5,266.167 847.5,264.833 847.5,263.5C 848.407,261.343 849.073,259.01 849.5,256.5 Z"/></g>
<g><path style="opacity:1" fill="#f0e7f6" d="M 948.5,237.5 C 947.125,248.877 945.458,260.211 943.5,271.5C 943.037,274.482 942.704,277.482 942.5,280.5C 941.167,286.833 939.833,293.167 938.5,299.5C 938.715,297.821 938.048,296.821 936.5,296.5C 936.5,296.167 936.5,295.833 936.5,295.5C 936.517,293.435 936.85,291.435 937.5,289.5C 937.629,287.784 937.962,286.117 938.5,284.5C 938.5,283.167 938.5,281.833 938.5,280.5C 939.219,278.236 939.552,275.903 939.5,273.5C 940.341,271.621 940.675,269.621 940.5,267.5C 941.675,263.958 942.341,260.291 942.5,256.5C 943.285,251.12 944.285,245.787 945.5,240.5C 945.5,240.167 945.5,239.833 945.5,239.5C 946.161,238.282 946.828,236.949 947.5,235.5C 948.298,235.957 948.631,236.624 948.5,237.5 Z"/></g>
<g><path style="opacity:1" fill="#ab7ecb" d="M 146.5,267.5 C 178.167,267.5 209.833,267.5 241.5,267.5C 240.659,269.379 240.325,271.379 240.5,273.5C 208.833,273.5 177.167,273.5 145.5,273.5C 145.517,271.435 145.85,269.435 146.5,267.5 Z"/></g>
<g><path style="opacity:1" fill="#ab7ecb" d="M 469.5,267.5 C 501.167,267.5 532.833,267.5 564.5,267.5C 563.659,269.379 563.325,271.379 563.5,273.5C 531.277,272.852 499.277,273.519 467.5,275.5C 467.802,272.627 468.469,269.961 469.5,267.5 Z"/></g>
<g><path style="opacity:1" fill="#e950fb" d="M 850.5,225.5 C 847.432,240.252 845.098,255.252 843.5,270.5C 840.574,283.702 838.241,297.035 836.5,310.5C 836.5,311.167 836.5,311.833 836.5,312.5C 835.833,313.167 835.167,313.833 834.5,314.5C 836.339,300.794 838.506,287.127 841,273.5C 842.052,266.872 842.552,260.206 842.5,253.5C 842.5,252.833 842.5,252.167 842.5,251.5C 843.117,251.389 843.617,251.056 844,250.5C 847.561,237.071 849.395,223.404 849.5,209.5C 849.5,209.167 849.5,208.833 849.5,208.5C 852.609,197.293 854.942,185.793 856.5,174C 856.472,172.93 856.139,172.097 855.5,171.5C 855.5,170.833 855.5,170.167 855.5,169.5C 857.841,168.492 858.841,169.492 858.5,172.5C 855.506,190.128 852.84,207.795 850.5,225.5 Z"/></g>
<g><path style="opacity:1" fill="#ab7ecb" d="M 847.5,267.5 C 878.5,267.5 909.5,267.5 940.5,267.5C 940.675,269.621 940.341,271.621 939.5,273.5C 908.5,273.5 877.5,273.5 846.5,273.5C 846.517,271.435 846.85,269.435 847.5,267.5 Z"/></g>
<g><path style="opacity:1" fill="#ba44e2" d="M 954.5,261.5 C 947.841,310.124 940.175,358.457 931.5,406.5C 938.648,357.953 946.314,309.62 954.5,261.5 Z"/></g>
<g><path style="opacity:1" fill="#f374f8" d="M 283.5,80.5 C 282.71,87.237 281.71,93.9037 280.5,100.5C 277.644,114.641 275.31,128.975 273.5,143.5C 272.299,153.507 270.966,163.507 269.5,173.5C 262.887,207.514 257.22,241.847 252.5,276.5C 242.314,337.286 232.648,398.286 223.5,459.5C 222.072,466.389 220.739,473.389 219.5,480.5C 218.833,480.833 218.167,481.167 217.5,481.5C 224.997,434.195 232.33,386.862 239.5,339.5C 243.142,320.397 246.142,301.064 248.5,281.5C 252.344,263.097 255.344,244.431 257.5,225.5C 265.56,176.922 273.393,128.255 281,79.5C 282.423,73.0974 283.257,73.4308 283.5,80.5 Z"/></g>
<g><path style="opacity:1" fill="#9f32c9" d="M 951.5,261.5 C 950.242,272.564 948.575,283.564 946.5,294.5C 944.833,294.5 943.167,294.5 941.5,294.5C 942.127,289.859 942.46,285.193 942.5,280.5C 942.704,277.482 943.037,274.482 943.5,271.5C 944.87,268.381 945.87,265.048 946.5,261.5C 948.167,261.5 949.833,261.5 951.5,261.5 Z"/></g>
<g><path style="opacity:1" fill="#a585cd" d="M 145.5,273.5 C 177.167,273.5 208.833,273.5 240.5,273.5C 239.781,275.764 239.448,278.097 239.5,280.5C 207.833,280.5 176.167,280.5 144.5,280.5C 144.448,278.097 144.781,275.764 145.5,273.5 Z"/></g>
<g><path style="opacity:1" fill="#a585cd" d="M 563.5,273.5 C 562.935,275.952 562.268,278.285 561.5,280.5C 530.167,280.5 498.833,280.5 467.5,280.5C 467.5,278.833 467.5,277.167 467.5,275.5C 499.277,273.519 531.277,272.852 563.5,273.5 Z"/></g>
<g><path style="opacity:1" fill="#a585cd" d="M 846.5,273.5 C 877.5,273.5 908.5,273.5 939.5,273.5C 939.552,275.903 939.219,278.236 938.5,280.5C 907.5,280.5 876.5,280.5 845.5,280.5C 845.993,278.194 846.326,275.861 846.5,273.5 Z"/></g>
<g><path style="opacity:1" fill="#9e8ccf" d="M 144.5,280.5 C 176.167,280.5 207.833,280.5 239.5,280.5C 238.699,282.042 238.366,283.708 238.5,285.5C 206.833,285.5 175.167,285.5 143.5,285.5C 143.216,283.585 143.549,281.919 144.5,280.5 Z"/></g>
<g><path style="opacity:1" fill="#9e8ccf" d="M 467.5,280.5 C 498.833,280.5 530.167,280.5 561.5,280.5C 561.5,282.167 561.5,283.833 561.5,285.5C 529.833,285.5 498.167,285.5 466.5,285.5C 466.366,283.708 466.699,282.042 467.5,280.5 Z"/></g>
<g><path style="opacity:1" fill="#9e8ccf" d="M 845.5,280.5 C 876.5,280.5 907.5,280.5 938.5,280.5C 938.5,281.833 938.5,283.167 938.5,284.5C 907.24,285.492 875.907,285.825 844.5,285.5C 844.629,283.784 844.962,282.117 845.5,280.5 Z"/></g>
<g><path style="opacity:1" fill="#9e3dd5" d="M 471.5,248.5 C 471.5,250.5 471.5,252.5 471.5,254.5C 470.735,257.096 470.401,259.763 470.5,262.5C 469.549,263.919 469.216,265.585 469.5,267.5C 468.469,269.961 467.802,272.627 467.5,275.5C 467.5,277.167 467.5,278.833 467.5,280.5C 466.699,282.042 466.366,283.708 466.5,285.5C 465.766,286.708 465.433,288.041 465.5,289.5C 465.167,291.5 464.833,293.5 464.5,295.5C 464.042,299.538 463.376,303.538 462.5,307.5C 462.5,308.167 462.5,308.833 462.5,309.5C 462.483,311.565 462.15,313.565 461.5,315.5C 461.768,317.099 461.434,318.432 460.5,319.5C 459.883,319.611 459.383,319.944 459,320.5C 458.503,322.81 458.337,325.143 458.5,327.5C 457.5,327.5 456.5,327.5 455.5,327.5C 455.109,320.346 455.775,313.346 457.5,306.5C 458.687,303.054 459.354,299.387 459.5,295.5C 462.746,283.154 465.079,270.487 466.5,257.5C 467.643,257.092 468.643,256.425 469.5,255.5C 470.067,253.018 470.734,250.684 471.5,248.5 Z"/></g>
<g><path style="opacity:1" fill="#9f32c9" d="M 576.5,252.5 C 574.377,266.569 572.044,280.569 569.5,294.5C 567.712,294.785 566.045,294.452 564.5,293.5C 565.426,289.906 565.759,286.24 565.5,282.5C 566.428,274.063 567.762,265.73 569.5,257.5C 569.78,253.241 572.114,251.574 576.5,252.5 Z"/></g>
<g><path style="opacity:1" fill="#9a3dd0" d="M 847.5,263.5 C 847.5,264.833 847.5,266.167 847.5,267.5C 846.85,269.435 846.517,271.435 846.5,273.5C 846.326,275.861 845.993,278.194 845.5,280.5C 844.962,282.117 844.629,283.784 844.5,285.5C 844.371,287.216 844.038,288.883 843.5,290.5C 843.5,292.167 843.5,293.833 843.5,295.5C 842.729,298.454 842.062,301.454 841.5,304.5C 841.737,305.791 841.404,306.791 840.5,307.5C 839.474,308.853 838.141,309.853 836.5,310.5C 838.241,297.035 840.574,283.702 843.5,270.5C 845.562,268.639 846.895,266.305 847.5,263.5 Z"/></g>
<g><path style="opacity:1" fill="#ba44e2" d="M 252.5,276.5 C 243.841,337.79 234.175,398.79 223.5,459.5C 232.648,398.286 242.314,337.286 252.5,276.5 Z"/></g>
<g><path style="opacity:1" fill="#9a92d0" d="M 143.5,285.5 C 175.167,285.5 206.833,285.5 238.5,285.5C 238.167,286.833 237.833,288.167 237.5,289.5C 205.833,289.5 174.167,289.5 142.5,289.5C 143.234,288.292 143.567,286.959 143.5,285.5 Z"/></g>
<g><path style="opacity:1" fill="#9a92d0" d="M 466.5,285.5 C 498.167,285.5 529.833,285.5 561.5,285.5C 561.5,286.167 561.5,286.833 561.5,287.5C 560.662,287.842 560.328,288.508 560.5,289.5C 528.833,289.5 497.167,289.5 465.5,289.5C 465.433,288.041 465.766,286.708 466.5,285.5 Z"/></g>
<g><path style="opacity:1" fill="#9a92d0" d="M 938.5,284.5 C 937.962,286.117 937.629,287.784 937.5,289.5C 906.093,289.175 874.76,289.508 843.5,290.5C 844.038,288.883 844.371,287.216 844.5,285.5C 875.907,285.825 907.24,285.492 938.5,284.5 Z"/></g>
<g><path style="opacity:1" fill="#e979f6" d="M 464.5,251.5 C 464.106,266.334 462.439,281.001 459.5,295.5C 459.354,299.387 458.687,303.054 457.5,306.5C 457.5,302.833 457.5,299.167 457.5,295.5C 459.206,280.604 461.539,265.937 464.5,251.5 Z"/></g>
<g><path style="opacity:1" fill="#9498d2" d="M 142.5,289.5 C 174.167,289.5 205.833,289.5 237.5,289.5C 237.795,291.735 237.461,293.735 236.5,295.5C 204.833,295.5 173.167,295.5 141.5,295.5C 142.15,293.565 142.483,291.565 142.5,289.5 Z"/></g>
<g><path style="opacity:1" fill="#9498d2" d="M 465.5,289.5 C 497.167,289.5 528.833,289.5 560.5,289.5C 560.483,291.565 560.15,293.565 559.5,295.5C 527.833,295.5 496.167,295.5 464.5,295.5C 464.833,293.5 465.167,291.5 465.5,289.5 Z"/></g>
<g><path style="opacity:1" fill="#9498d2" d="M 937.5,289.5 C 936.85,291.435 936.517,293.435 936.5,295.5C 905.5,295.5 874.5,295.5 843.5,295.5C 843.5,293.833 843.5,292.167 843.5,290.5C 874.76,289.508 906.093,289.175 937.5,289.5 Z"/></g>
<g><path style="opacity:1" fill="#eaebf7" d="M 242.5,261.5 C 244.176,262.183 244.843,263.517 244.5,265.5C 243.313,271.773 242.646,278.106 242.5,284.5C 239.27,301.667 236.27,319 233.5,336.5C 231.952,336.179 231.285,335.179 231.5,333.5C 231.5,332.833 231.5,332.167 231.5,331.5C 231.616,328.14 231.949,324.807 232.5,321.5C 233.341,319.621 233.675,317.621 233.5,315.5C 233.833,313.5 234.167,311.5 234.5,309.5C 234.629,307.784 234.962,306.117 235.5,304.5C 235.963,301.518 236.296,298.518 236.5,295.5C 237.461,293.735 237.795,291.735 237.5,289.5C 237.833,288.167 238.167,286.833 238.5,285.5C 238.366,283.708 238.699,282.042 239.5,280.5C 239.448,278.097 239.781,275.764 240.5,273.5C 240.325,271.379 240.659,269.379 241.5,267.5C 241.5,265.833 241.5,264.167 241.5,262.5C 242.167,262.5 242.5,262.167 242.5,261.5 Z"/></g>
<g><path style="opacity:1" fill="#e683f5" d="M 842.5,253.5 C 842.552,260.206 842.052,266.872 841,273.5C 838.506,287.127 836.339,300.794 834.5,314.5C 834.451,319.816 833.451,324.816 831.5,329.5C 831.5,327.5 831.5,325.5 831.5,323.5C 834.539,299.94 838.206,276.606 842.5,253.5 Z"/></g>
<g><path style="opacity:1" fill="#8ba3d4" d="M 141.5,295.5 C 173.167,295.5 204.833,295.5 236.5,295.5C 236.296,298.518 235.963,301.518 235.5,304.5C 203.833,304.5 172.167,304.5 140.5,304.5C 140.704,301.482 141.037,298.482 141.5,295.5 Z"/></g>
<g><path style="opacity:1" fill="#8ba2d4" d="M 464.5,295.5 C 496.167,295.5 527.833,295.5 559.5,295.5C 559.492,298.545 559.159,301.545 558.5,304.5C 526.833,304.5 495.167,304.5 463.5,304.5C 463.737,305.791 463.404,306.791 462.5,307.5C 463.376,303.538 464.042,299.538 464.5,295.5 Z"/></g>
<g><path style="opacity:1" fill="#8ba3d4" d="M 843.5,295.5 C 874.5,295.5 905.5,295.5 936.5,295.5C 936.5,295.833 936.5,296.167 936.5,296.5C 935.631,298.717 935.298,301.05 935.5,303.5C 904.24,304.492 872.907,304.825 841.5,304.5C 842.062,301.454 842.729,298.454 843.5,295.5 Z"/></g>
<g><path style="opacity:1" fill="#973fd3" d="M 149.5,242.5 C 149.5,243.833 149.5,245.167 149.5,246.5C 149.167,249.167 148.833,251.833 148.5,254.5C 147.833,257.5 147.167,260.5 146.5,263.5C 146.5,264.833 146.5,266.167 146.5,267.5C 145.85,269.435 145.517,271.435 145.5,273.5C 144.781,275.764 144.448,278.097 144.5,280.5C 143.549,281.919 143.216,283.585 143.5,285.5C 143.567,286.959 143.234,288.292 142.5,289.5C 142.483,291.565 142.15,293.565 141.5,295.5C 141.037,298.482 140.704,301.482 140.5,304.5C 139.699,306.042 139.366,307.708 139.5,309.5C 139.483,311.565 139.15,313.565 138.5,315.5C 138.167,317.5 137.833,319.5 137.5,321.5C 136.208,323.255 135.208,325.255 134.5,327.5C 133.817,327.863 133.15,328.196 132.5,328.5C 133.903,323.613 134.569,318.613 134.5,313.5C 135.167,307.5 135.833,301.5 136.5,295.5C 137.222,295.082 137.722,294.416 138,293.5C 139.061,286.801 140.228,280.134 141.5,273.5C 142.75,273.423 143.583,272.756 144,271.5C 145.638,261.656 147.471,251.99 149.5,242.5 Z"/></g>
<g><path style="opacity:1" fill="#85aad7" d="M 140.5,304.5 C 172.167,304.5 203.833,304.5 235.5,304.5C 234.962,306.117 234.629,307.784 234.5,309.5C 202.833,309.5 171.167,309.5 139.5,309.5C 139.366,307.708 139.699,306.042 140.5,304.5 Z"/></g>
<g><path style="opacity:1" fill="#85aad7" d="M 558.5,304.5 C 558.371,306.216 558.038,307.883 557.5,309.5C 525.833,309.5 494.167,309.5 462.5,309.5C 462.5,308.833 462.5,308.167 462.5,307.5C 463.404,306.791 463.737,305.791 463.5,304.5C 495.167,304.5 526.833,304.5 558.5,304.5 Z"/></g>
<g><path style="opacity:1" fill="#85aad7" d="M 935.5,303.5 C 934.85,305.435 934.517,307.435 934.5,309.5C 903.167,309.5 871.833,309.5 840.5,309.5C 840.5,308.833 840.5,308.167 840.5,307.5C 841.404,306.791 841.737,305.791 841.5,304.5C 872.907,304.825 904.24,304.492 935.5,303.5 Z"/></g>
<g><path style="opacity:1" fill="#b843e0" d="M 571.5,301.5 C 571.268,310.14 569.935,318.473 567.5,326.5C 568.291,317.949 569.624,309.616 571.5,301.5 Z"/></g>
<g><path style="opacity:1" fill="#893ed2" d="M 248.5,281.5 C 246.142,301.064 243.142,320.397 239.5,339.5C 237.682,336.985 235.682,336.985 233.5,339.5C 233.5,338.5 233.5,337.5 233.5,336.5C 236.27,319 239.27,301.667 242.5,284.5C 243.404,283.791 243.737,282.791 243.5,281.5C 245.167,281.5 246.833,281.5 248.5,281.5 Z"/></g>
<g><path style="opacity:1" fill="#8c3cd1" d="M 942.5,280.5 C 942.46,285.193 942.127,289.859 941.5,294.5C 943.167,294.5 944.833,294.5 946.5,294.5C 945.063,304.665 943.396,314.665 941.5,324.5C 939.682,321.985 937.682,321.985 935.5,324.5C 936.719,316.195 937.719,307.862 938.5,299.5C 939.833,293.167 941.167,286.833 942.5,280.5 Z"/></g>
<g><path style="opacity:1" fill="#7fb0d8" d="M 139.5,309.5 C 171.167,309.5 202.833,309.5 234.5,309.5C 234.167,311.5 233.833,313.5 233.5,315.5C 201.833,315.5 170.167,315.5 138.5,315.5C 139.15,313.565 139.483,311.565 139.5,309.5 Z"/></g>
<g><path style="opacity:1" fill="#7fb0d8" d="M 462.5,309.5 C 494.167,309.5 525.833,309.5 557.5,309.5C 557.167,311.5 556.833,313.5 556.5,315.5C 524.833,315.5 493.167,315.5 461.5,315.5C 462.15,313.565 462.483,311.565 462.5,309.5 Z"/></g>
<g><path style="opacity:1" fill="#7fb0d8" d="M 840.5,309.5 C 871.833,309.5 903.167,309.5 934.5,309.5C 933.659,311.379 933.325,313.379 933.5,315.5C 902.5,315.5 871.5,315.5 840.5,315.5C 840.5,313.5 840.5,311.5 840.5,309.5 Z"/></g>
<g><path style="opacity:1" fill="#7ab7da" d="M 138.5,315.5 C 170.167,315.5 201.833,315.5 233.5,315.5C 233.675,317.621 233.341,319.621 232.5,321.5C 200.833,321.5 169.167,321.5 137.5,321.5C 137.833,319.5 138.167,317.5 138.5,315.5 Z"/></g>
<g><path style="opacity:1" fill="#7ab7da" d="M 461.5,315.5 C 493.167,315.5 524.833,315.5 556.5,315.5C 556.167,317.5 555.833,319.5 555.5,321.5C 523.833,321.5 492.167,321.5 460.5,321.5C 460.5,320.833 460.5,320.167 460.5,319.5C 461.434,318.432 461.768,317.099 461.5,315.5 Z"/></g>
<g><path style="opacity:1" fill="#7ab7da" d="M 840.5,315.5 C 871.5,315.5 902.5,315.5 933.5,315.5C 932.659,317.379 932.325,319.379 932.5,321.5C 901.5,321.5 870.5,321.5 839.5,321.5C 839.205,319.265 839.539,317.265 840.5,315.5 Z"/></g>
<g><path style="opacity:1" fill="#b558fa" d="M 836.5,312.5 C 834.579,327.099 831.912,341.432 828.5,355.5C 829.282,346.808 830.282,338.142 831.5,329.5C 833.451,324.816 834.451,319.816 834.5,314.5C 835.167,313.833 835.833,313.167 836.5,312.5 Z"/></g>
<g><path style="opacity:1" fill="#73bedc" d="M 460.5,321.5 C 492.167,321.5 523.833,321.5 555.5,321.5C 555.675,323.621 555.341,325.621 554.5,327.5C 522.833,327.5 491.167,327.5 459.5,327.5C 459.325,325.379 459.659,323.379 460.5,321.5 Z"/></g>
<g><path style="opacity:1" fill="#e389f8" d="M 457.5,295.5 C 457.5,299.167 457.5,302.833 457.5,306.5C 455.775,313.346 455.109,320.346 455.5,327.5C 452.949,339.13 450.616,350.797 448.5,362.5C 449.883,354.903 450.55,347.236 450.5,339.5C 452.206,324.604 454.539,309.937 457.5,295.5 Z"/></g>
<g><path style="opacity:1" fill="#6fc1dd" d="M 137.5,321.5 C 169.167,321.5 200.833,321.5 232.5,321.5C 231.949,324.807 231.616,328.14 231.5,331.5C 199.907,332.492 168.24,332.825 136.5,332.5C 136.423,328.785 136.756,325.119 137.5,321.5 Z"/></g>
<g><path style="opacity:1" fill="#6dc4de" d="M 459.5,327.5 C 491.167,327.5 522.833,327.5 554.5,327.5C 554.326,329.861 553.993,332.194 553.5,334.5C 521.833,334.5 490.167,334.5 458.5,334.5C 458.768,336.099 458.434,337.432 457.5,338.5C 457.751,334.751 458.417,331.085 459.5,327.5 Z"/></g>
<g><path style="opacity:1" fill="#843ed4" d="M 565.5,282.5 C 565.759,286.24 565.426,289.906 564.5,293.5C 566.045,294.452 567.712,294.785 569.5,294.5C 567.891,309.078 565.557,323.411 562.5,337.5C 560.801,337.66 559.134,337.494 557.5,337C 558.456,333.606 558.789,330.106 558.5,326.5C 560.413,314.2 562.079,301.866 563.5,289.5C 564.167,287.167 564.833,284.833 565.5,282.5 Z"/></g>
<g><path style="opacity:1" fill="#7849dc" d="M 840.5,307.5 C 840.5,308.167 840.5,308.833 840.5,309.5C 840.5,311.5 840.5,313.5 840.5,315.5C 839.539,317.265 839.205,319.265 839.5,321.5C 838.097,324.909 837.43,328.575 837.5,332.5C 836.527,334.948 836.194,337.615 836.5,340.5C 835.469,342.961 834.802,345.627 834.5,348.5C 834.069,352.337 833.402,356.003 832.5,359.5C 831.271,362.558 829.937,365.558 828.5,368.5C 828.064,364.244 828.064,359.911 828.5,355.5C 831.912,341.432 834.579,327.099 836.5,312.5C 836.5,311.833 836.5,311.167 836.5,310.5C 838.141,309.853 839.474,308.853 840.5,307.5 Z"/></g>
<g><path style="opacity:1" fill="#70c1dd" d="M 839.5,321.5 C 870.5,321.5 901.5,321.5 932.5,321.5C 931.833,325.167 931.167,328.833 930.5,332.5C 899.5,332.5 868.5,332.5 837.5,332.5C 837.43,328.575 838.097,324.909 839.5,321.5 Z"/></g>
<g><path style="opacity:1" fill="#bd45e4" d="M 567.5,326.5 C 561.453,372.511 554.12,418.178 545.5,463.5C 545.5,462.167 545.5,460.833 545.5,459.5C 552.959,415.08 560.292,370.747 567.5,326.5 Z"/></g>
<g><path style="opacity:1" fill="#68cadf" d="M 231.5,331.5 C 231.5,332.167 231.5,332.833 231.5,333.5C 230.732,335.715 230.065,338.048 229.5,340.5C 197.833,340.5 166.167,340.5 134.5,340.5C 134.294,337.505 134.96,334.838 136.5,332.5C 168.24,332.825 199.907,332.492 231.5,331.5 Z"/></g>
<g><path style="opacity:1" fill="#67cadf" d="M 553.5,334.5 C 553.167,336.5 552.833,338.5 552.5,340.5C 520.833,340.5 489.167,340.5 457.5,340.5C 457.5,339.833 457.5,339.167 457.5,338.5C 458.434,337.432 458.768,336.099 458.5,334.5C 490.167,334.5 521.833,334.5 553.5,334.5 Z"/></g>
<g><path style="opacity:1" fill="#68cadf" d="M 837.5,332.5 C 868.5,332.5 899.5,332.5 930.5,332.5C 929.908,335.127 929.575,337.794 929.5,340.5C 898.5,340.5 867.5,340.5 836.5,340.5C 836.194,337.615 836.527,334.948 837.5,332.5 Z"/></g>
<g><path style="opacity:1" fill="#5fd3e1" d="M 457.5,340.5 C 489.167,340.5 520.833,340.5 552.5,340.5C 551.833,345.5 551.167,350.5 550.5,355.5C 518.277,354.852 486.277,355.519 454.5,357.5C 455.583,351.824 456.583,346.157 457.5,340.5 Z"/></g>
<g><path style="opacity:1" fill="#61d1e1" d="M 836.5,340.5 C 867.5,340.5 898.5,340.5 929.5,340.5C 929.198,343.373 928.531,346.039 927.5,348.5C 896.5,348.5 865.5,348.5 834.5,348.5C 834.802,345.627 835.469,342.961 836.5,340.5 Z"/></g>
<g><path style="opacity:1" fill="#7c4be7" d="M 460.5,319.5 C 460.5,320.167 460.5,320.833 460.5,321.5C 459.659,323.379 459.325,325.379 459.5,327.5C 458.417,331.085 457.751,334.751 457.5,338.5C 457.5,339.167 457.5,339.833 457.5,340.5C 456.583,346.157 455.583,351.824 454.5,357.5C 454.5,358.5 454.5,359.5 454.5,360.5C 453.533,361.806 452.199,362.473 450.5,362.5C 450.357,364.262 450.691,365.929 451.5,367.5C 448.907,371.386 447.907,370.719 448.5,365.5C 448.5,364.5 448.5,363.5 448.5,362.5C 450.616,350.797 452.949,339.13 455.5,327.5C 456.5,327.5 457.5,327.5 458.5,327.5C 458.337,325.143 458.503,322.81 459,320.5C 459.383,319.944 459.883,319.611 460.5,319.5 Z"/></g>
<g><path style="opacity:1" fill="#7248dd" d="M 941.5,324.5 C 939.794,339.399 937.46,354.066 934.5,368.5C 933.448,366.744 931.781,366.077 929.5,366.5C 929.706,369.495 929.04,372.162 927.5,374.5C 929.852,357.651 932.518,340.984 935.5,324.5C 937.682,321.985 939.682,321.985 941.5,324.5 Z"/></g>
<g><path style="opacity:1" fill="#9f5dfb" d="M 134.5,313.5 C 134.569,318.613 133.903,323.613 132.5,328.5C 130.025,349.195 126.358,369.528 121.5,389.5C 123.407,376.148 125.407,362.815 127.5,349.5C 128.268,348.737 128.768,347.737 129,346.5C 129.578,337.44 130.578,328.44 132,319.5C 133.019,317.498 133.852,315.498 134.5,313.5 Z"/></g>
<g><path style="opacity:1" fill="#54dce4" d="M 550.5,355.5 C 549.912,358.61 549.245,361.61 548.5,364.5C 516.833,364.5 485.167,364.5 453.5,364.5C 454.234,363.292 454.567,361.959 454.5,360.5C 454.5,359.5 454.5,358.5 454.5,357.5C 486.277,355.519 518.277,354.852 550.5,355.5 Z"/></g>
<g><path style="opacity:1" fill="#56dbe3" d="M 834.5,348.5 C 865.5,348.5 896.5,348.5 927.5,348.5C 927.635,353.95 926.969,359.284 925.5,364.5C 893.943,363.853 862.61,364.519 831.5,366.5C 831.674,364.139 832.007,361.806 832.5,359.5C 833.402,356.003 834.069,352.337 834.5,348.5 Z"/></g>
<g><path style="opacity:1" fill="#e2f5fb" d="M 231.5,333.5 C 231.285,335.179 231.952,336.179 233.5,336.5C 233.5,337.5 233.5,338.5 233.5,339.5C 232.51,343.772 231.844,348.106 231.5,352.5C 230.343,355.273 229.676,358.273 229.5,361.5C 223.582,399.846 217.582,438.18 211.5,476.5C 210.5,476.5 209.5,476.5 208.5,476.5C 213.864,443.553 218.864,410.553 223.5,377.5C 224.687,374.054 225.354,370.387 225.5,366.5C 226.402,363.003 227.069,359.337 227.5,355.5C 228.685,350.575 229.351,345.575 229.5,340.5C 230.065,338.048 230.732,335.715 231.5,333.5 Z"/></g>
<g><path style="opacity:1" fill="#e3f3fa" d="M 561.5,287.5 C 562.833,287.5 563.5,288.167 563.5,289.5C 562.079,301.866 560.413,314.2 558.5,326.5C 550.141,376.32 542.141,426.32 534.5,476.5C 533.5,476.5 532.5,476.5 531.5,476.5C 536.499,443.839 541.499,411.172 546.5,378.5C 547.521,374.02 548.187,369.353 548.5,364.5C 549.245,361.61 549.912,358.61 550.5,355.5C 551.167,350.5 551.833,345.5 552.5,340.5C 552.833,338.5 553.167,336.5 553.5,334.5C 553.993,332.194 554.326,329.861 554.5,327.5C 555.341,325.621 555.675,323.621 555.5,321.5C 555.833,319.5 556.167,317.5 556.5,315.5C 556.833,313.5 557.167,311.5 557.5,309.5C 558.038,307.883 558.371,306.216 558.5,304.5C 559.159,301.545 559.492,298.545 559.5,295.5C 560.15,293.565 560.483,291.565 560.5,289.5C 560.328,288.508 560.662,287.842 561.5,287.5 Z"/></g>
<g><path style="opacity:1" fill="#e3f4fa" d="M 936.5,296.5 C 938.048,296.821 938.715,297.821 938.5,299.5C 937.719,307.862 936.719,316.195 935.5,324.5C 932.518,340.984 929.852,357.651 927.5,374.5C 921.523,407.72 916.19,441.053 911.5,474.5C 910.778,475.551 909.778,476.218 908.5,476.5C 913.239,443.137 918.239,409.803 923.5,376.5C 924.482,372.684 925.149,368.684 925.5,364.5C 926.969,359.284 927.635,353.95 927.5,348.5C 928.531,346.039 929.198,343.373 929.5,340.5C 929.575,337.794 929.908,335.127 930.5,332.5C 931.167,328.833 931.833,325.167 932.5,321.5C 932.325,319.379 932.659,317.379 933.5,315.5C 933.325,313.379 933.659,311.379 934.5,309.5C 934.517,307.435 934.85,305.435 935.5,303.5C 935.298,301.05 935.631,298.717 936.5,296.5 Z"/></g>
<g><path style="opacity:1" fill="#4de2e5" d="M 925.5,364.5 C 925.149,368.684 924.482,372.684 923.5,376.5C 892.671,375.502 861.671,375.169 830.5,375.5C 830.704,372.482 831.037,369.482 831.5,366.5C 862.61,364.519 893.943,363.853 925.5,364.5 Z"/></g>
<g><path style="opacity:1" fill="#6452e9" d="M 137.5,321.5 C 136.756,325.119 136.423,328.785 136.5,332.5C 134.96,334.838 134.294,337.505 134.5,340.5C 133.826,346.564 132.826,352.564 131.5,358.5C 130.624,362.462 129.958,366.462 129.5,370.5C 129.007,372.806 128.674,375.139 128.5,377.5C 123.37,409.816 118.37,442.149 113.5,474.5C 112.596,475.209 112.263,476.209 112.5,477.5C 145.671,477.832 178.671,477.498 211.5,476.5C 217.582,438.18 223.582,399.846 229.5,361.5C 231.118,358.829 231.785,355.829 231.5,352.5C 231.844,348.106 232.51,343.772 233.5,339.5C 235.682,336.985 237.682,336.985 239.5,339.5C 232.33,386.862 224.997,434.195 217.5,481.5C 217.5,482.167 217.5,482.833 217.5,483.5C 217.167,483.5 216.833,483.5 216.5,483.5C 198.846,482.167 180.846,481.5 162.5,481.5C 144.095,481.506 125.761,481.84 107.5,482.5C 106.833,482.833 106.167,483.167 105.5,483.5C 105.128,480.978 105.961,478.978 108,477.5C 110.153,459.245 112.987,441.245 116.5,423.5C 119.119,412.773 120.786,401.773 121.5,390.5C 121.5,390.167 121.5,389.833 121.5,389.5C 126.358,369.528 130.025,349.195 132.5,328.5C 133.15,328.196 133.817,327.863 134.5,327.5C 135.208,325.255 136.208,323.255 137.5,321.5 Z"/></g>
<g><path style="opacity:1" fill="#4de3e5" d="M 225.5,366.5 C 225.354,370.387 224.687,374.054 223.5,377.5C 208.181,376.167 192.515,375.501 176.5,375.5C 160.28,375.515 144.28,376.182 128.5,377.5C 128.674,375.139 129.007,372.806 129.5,370.5C 130.434,369.432 130.768,368.099 130.5,366.5C 162.167,366.5 193.833,366.5 225.5,366.5 Z"/></g>
<g><path style="opacity:1" fill="#9b94ed" d="M 231.5,352.5 C 231.785,355.829 231.118,358.829 229.5,361.5C 229.676,358.273 230.343,355.273 231.5,352.5 Z"/></g>
<g><path style="opacity:1" fill="#54dde4" d="M 227.5,355.5 C 227.069,359.337 226.402,363.003 225.5,366.5C 193.833,366.5 162.167,366.5 130.5,366.5C 130.768,368.099 130.434,369.432 129.5,370.5C 129.958,366.462 130.624,362.462 131.5,358.5C 132.404,357.791 132.737,356.791 132.5,355.5C 164.167,355.5 195.833,355.5 227.5,355.5 Z"/></g>
<g><path style="opacity:1" fill="#5fd3e1" d="M 134.5,340.5 C 166.167,340.5 197.833,340.5 229.5,340.5C 229.351,345.575 228.685,350.575 227.5,355.5C 195.833,355.5 164.167,355.5 132.5,355.5C 132.737,356.791 132.404,357.791 131.5,358.5C 132.826,352.564 133.826,346.564 134.5,340.5 Z"/></g>
<g><path style="opacity:1" fill="#6453e9" d="M 558.5,326.5 C 558.789,330.106 558.456,333.606 557.5,337C 559.134,337.494 560.801,337.66 562.5,337.5C 556.576,379.223 550.243,420.89 543.5,462.5C 541.958,469.418 540.958,476.418 540.5,483.5C 539.833,482.833 539.167,482.167 538.5,481.5C 502.329,481.168 466.329,481.502 430.5,482.5C 429.105,484.054 428.439,483.721 428.5,481.5C 430.449,479.208 431.449,476.541 431.5,473.5C 434.563,459.073 436.896,444.406 438.5,429.5C 441.199,407.929 444.532,386.596 448.5,365.5C 447.907,370.719 448.907,371.386 451.5,367.5C 450.691,365.929 450.357,364.262 450.5,362.5C 452.199,362.473 453.533,361.806 454.5,360.5C 454.567,361.959 454.234,363.292 453.5,364.5C 452.962,368.524 452.295,372.524 451.5,376.5C 446.336,408.475 441.336,440.475 436.5,472.5C 435.549,473.919 435.216,475.585 435.5,477.5C 468.671,477.832 501.671,477.498 534.5,476.5C 542.141,426.32 550.141,376.32 558.5,326.5 Z"/></g>
<g><path style="opacity:1" fill="#4de2e5" d="M 453.5,364.5 C 485.167,364.5 516.833,364.5 548.5,364.5C 548.187,369.353 547.521,374.02 546.5,378.5C 546.5,377.5 546.5,376.5 546.5,375.5C 514.76,375.175 483.093,375.508 451.5,376.5C 452.295,372.524 452.962,368.524 453.5,364.5 Z"/></g>
<g><path style="opacity:1" fill="#6354eb" d="M 828.5,355.5 C 828.064,359.911 828.064,364.244 828.5,368.5C 829.937,365.558 831.271,362.558 832.5,359.5C 832.007,361.806 831.674,364.139 831.5,366.5C 831.037,369.482 830.704,372.482 830.5,375.5C 824.77,408.969 819.437,442.636 814.5,476.5C 846.093,477.499 878.427,477.833 911.5,477.5C 911.5,476.5 911.5,475.5 911.5,474.5C 916.19,441.053 921.523,407.72 927.5,374.5C 929.04,372.162 929.706,369.495 929.5,366.5C 931.781,366.077 933.448,366.744 934.5,368.5C 929.6,403.234 924.267,437.901 918.5,472.5C 917.676,475.764 917.342,479.098 917.5,482.5C 916.833,482.167 916.167,481.833 915.5,481.5C 879.76,481.174 844.094,481.507 808.5,482.5C 806.797,483.66 806.131,482.993 806.5,480.5C 806.5,480.167 806.5,479.833 806.5,479.5C 807.833,478.833 808.833,477.833 809.5,476.5C 812.896,459.739 815.563,442.739 817.5,425.5C 820.888,401.993 824.555,378.66 828.5,355.5 Z"/></g>
<g><path style="opacity:1" fill="#44e9e7" d="M 223.5,377.5 C 218.864,410.553 213.864,443.553 208.5,476.5C 176.482,477.159 144.816,476.493 113.5,474.5C 118.37,442.149 123.37,409.816 128.5,377.5C 144.28,376.182 160.28,375.515 176.5,375.5C 192.515,375.501 208.181,376.167 223.5,377.5 Z"/></g>
<g><path style="opacity:1" fill="#44e9e7" d="M 546.5,378.5 C 541.499,411.172 536.499,443.839 531.5,476.5C 499.833,476.5 468.167,476.5 436.5,476.5C 436.5,475.167 436.5,473.833 436.5,472.5C 441.336,440.475 446.336,408.475 451.5,376.5C 483.093,375.508 514.76,375.175 546.5,375.5C 546.5,376.5 546.5,377.5 546.5,378.5 Z"/></g>
<g><path style="opacity:1" fill="#44e9e7" d="M 830.5,375.5 C 861.671,375.169 892.671,375.502 923.5,376.5C 918.239,409.803 913.239,443.137 908.5,476.5C 877.167,476.5 845.833,476.5 814.5,476.5C 819.437,442.636 824.77,408.969 830.5,375.5 Z"/></g>
<g><path style="opacity:1" fill="#9b7dfe" d="M 121.5,390.5 C 120.786,401.773 119.119,412.773 116.5,423.5C 117.431,412.261 119.097,401.261 121.5,390.5 Z"/></g>
<g><path style="opacity:1" fill="#d7a6f7" d="M 450.5,339.5 C 450.55,347.236 449.883,354.903 448.5,362.5C 448.5,363.5 448.5,364.5 448.5,365.5C 444.532,386.596 441.199,407.929 438.5,429.5C 435.322,443.906 432.989,458.573 431.5,473.5C 430.732,474.263 430.232,475.263 430,476.5C 429.51,475.207 429.343,473.873 429.5,472.5C 435.864,427.938 442.864,383.605 450.5,339.5 Z"/></g>
<g><path style="opacity:1" fill="#bf46e6" d="M 931.5,406.5 C 929.693,425.165 926.693,443.498 922.5,461.5C 925.194,443.006 928.194,424.672 931.5,406.5 Z"/></g>
<g><path style="opacity:1" fill="#f379f9" d="M 966.5,170.5 C 967.833,170.5 968.5,171.167 968.5,172.5C 964.648,193.286 961.314,214.286 958.5,235.5C 958.5,235.833 958.5,236.167 958.5,236.5C 957.474,241.144 956.307,245.81 955,250.5C 954.502,253.482 954.335,256.482 954.5,259.5C 954.5,260.167 954.5,260.833 954.5,261.5C 946.314,309.62 938.648,357.953 931.5,406.5C 928.194,424.672 925.194,443.006 922.5,461.5C 922.5,462.167 922.5,462.833 922.5,463.5C 921.691,465.292 921.191,467.292 921,469.5C 920.623,470.942 919.79,471.942 918.5,472.5C 924.267,437.901 929.6,403.234 934.5,368.5C 937.46,354.066 939.794,339.399 941.5,324.5C 943.396,314.665 945.063,304.665 946.5,294.5C 948.575,283.564 950.242,272.564 951.5,261.5C 953.858,249.688 955.858,237.688 957.5,225.5C 960.255,207.127 963.255,188.793 966.5,170.5 Z"/></g>
<g><path style="opacity:1" fill="#daa7f7" d="M 831.5,323.5 C 831.5,325.5 831.5,327.5 831.5,329.5C 830.282,338.142 829.282,346.808 828.5,355.5C 824.555,378.66 820.888,401.993 817.5,425.5C 813.881,442.223 811.214,459.223 809.5,476.5C 808.833,477.833 807.833,478.833 806.5,479.5C 814.291,427.282 822.624,375.282 831.5,323.5 Z"/></g>
<g><path style="opacity:1" fill="#987afe" d="M 817.5,425.5 C 815.563,442.739 812.896,459.739 809.5,476.5C 811.214,459.223 813.881,442.223 817.5,425.5 Z"/></g>
<g><path style="opacity:1" fill="#987bfe" d="M 438.5,429.5 C 436.896,444.406 434.563,459.073 431.5,473.5C 432.989,458.573 435.322,443.906 438.5,429.5 Z"/></g>
<g><path style="opacity:1" fill="#d7a6f6" d="M 128.5,333.5 C 128.528,338.862 128.194,344.195 127.5,349.5C 125.407,362.815 123.407,376.148 121.5,389.5C 121.5,389.833 121.5,390.167 121.5,390.5C 119.097,401.261 117.431,412.261 116.5,423.5C 112.987,441.245 110.153,459.245 108,477.5C 105.961,478.978 105.128,480.978 105.5,483.5C 105.5,483.833 105.5,484.167 105.5,484.5C 104.596,483.791 104.263,482.791 104.5,481.5C 112.305,432.006 120.305,382.673 128.5,333.5 Z"/></g>
<g><path style="opacity:1" fill="#bc44e3" d="M 223.5,459.5 C 223.36,467.834 222.027,475.834 219.5,483.5C 219.5,482.5 219.5,481.5 219.5,480.5C 220.739,473.389 222.072,466.389 223.5,459.5 Z"/></g>
<g><path style="opacity:1" fill="#569ce8" d="M 113.5,474.5 C 144.816,476.493 176.482,477.159 208.5,476.5C 209.5,476.5 210.5,476.5 211.5,476.5C 178.671,477.498 145.671,477.832 112.5,477.5C 112.263,476.209 112.596,475.209 113.5,474.5 Z"/></g>
<g><path style="opacity:1" fill="#569ce8" d="M 436.5,472.5 C 436.5,473.833 436.5,475.167 436.5,476.5C 468.167,476.5 499.833,476.5 531.5,476.5C 532.5,476.5 533.5,476.5 534.5,476.5C 501.671,477.498 468.671,477.832 435.5,477.5C 435.216,475.585 435.549,473.919 436.5,472.5 Z"/></g>
<g><path style="opacity:1" fill="#599de8" d="M 911.5,474.5 C 911.5,475.5 911.5,476.5 911.5,477.5C 878.427,477.833 846.093,477.499 814.5,476.5C 845.833,476.5 877.167,476.5 908.5,476.5C 909.778,476.218 910.778,475.551 911.5,474.5 Z"/></g>
<g><path style="opacity:0.288" fill="#fefffe" d="M 104.5,481.5 C 104.263,482.791 104.596,483.791 105.5,484.5C 105.5,485.167 105.833,485.5 106.5,485.5C 106.833,486.5 107.5,487.167 108.5,487.5C 108.5,487.833 108.5,488.167 108.5,488.5C 106.064,488.683 103.897,488.016 102,486.5C 101.253,484.072 102.086,482.406 104.5,481.5 Z"/></g>
<g><path style="opacity:1" fill="#e1abfe" d="M 216.5,483.5 C 179.996,483.832 143.663,483.498 107.5,482.5C 125.761,481.84 144.095,481.506 162.5,481.5C 180.846,481.5 198.846,482.167 216.5,483.5 Z"/></g>
<g><path style="opacity:0.3" fill="#fefffe" d="M 427.5,481.5 C 427.229,483.38 427.896,484.713 429.5,485.5C 429.833,486.5 430.5,487.167 431.5,487.5C 431.5,487.833 431.5,488.167 431.5,488.5C 429.064,488.683 426.897,488.016 425,486.5C 424.253,484.072 425.086,482.406 427.5,481.5 Z"/></g>
<g><path style="opacity:0.268" fill="#fffaff" d="M 805.5,481.5 C 805.285,483.179 805.952,484.179 807.5,484.5C 807.932,485.71 808.599,486.71 809.5,487.5C 809.5,487.833 809.5,488.167 809.5,488.5C 806.343,488.921 804.01,487.755 802.5,485C 803.163,483.482 804.163,482.315 805.5,481.5 Z"/></g>
<g><path style="opacity:1" fill="#b389e1" d="M 107.5,482.5 C 143.663,483.498 179.996,483.832 216.5,483.5C 216.833,483.5 217.167,483.5 217.5,483.5C 180.5,484.167 143.5,484.833 106.5,485.5C 105.833,485.5 105.5,485.167 105.5,484.5C 105.5,484.167 105.5,483.833 105.5,483.5C 106.167,483.167 106.833,482.833 107.5,482.5 Z"/></g>
<g><path style="opacity:1" fill="#b48ae3" d="M 429.5,472.5 C 429.343,473.873 429.51,475.207 430,476.5C 430.232,475.263 430.732,474.263 431.5,473.5C 431.449,476.541 430.449,479.208 428.5,481.5C 428.439,483.721 429.105,484.054 430.5,482.5C 448.33,483.167 466.33,483.5 484.5,483.5C 502.846,483.5 520.846,482.833 538.5,481.5C 539.167,482.167 539.833,482.833 540.5,483.5C 503.5,484.167 466.5,484.833 429.5,485.5C 427.896,484.713 427.229,483.38 427.5,481.5C 427.858,478.311 428.525,475.311 429.5,472.5 Z"/></g>
<g><path style="opacity:1" fill="#e1abfe" d="M 538.5,481.5 C 520.846,482.833 502.846,483.5 484.5,483.5C 466.33,483.5 448.33,483.167 430.5,482.5C 466.329,481.502 502.329,481.168 538.5,481.5 Z"/></g>
<g><path style="opacity:1" fill="#b389e1" d="M 806.5,480.5 C 806.131,482.993 806.797,483.66 808.5,482.5C 826.164,483.167 843.997,483.5 862,483.5C 880.179,483.5 898.013,482.833 915.5,481.5C 916.167,481.833 916.833,482.167 917.5,482.5C 881.182,484.494 844.515,485.16 807.5,484.5C 805.952,484.179 805.285,483.179 805.5,481.5C 805.5,480.833 805.833,480.5 806.5,480.5 Z"/></g>
<g><path style="opacity:1" fill="#e1abfe" d="M 915.5,481.5 C 898.013,482.833 880.179,483.5 862,483.5C 843.997,483.5 826.164,483.167 808.5,482.5C 844.094,481.507 879.76,481.174 915.5,481.5 Z"/></g>
<g><path style="opacity:1" fill="#df56ed" d="M 219.5,480.5 C 219.5,481.5 219.5,482.5 219.5,483.5C 219.64,485.124 218.973,486.29 217.5,487C 181.168,487.5 144.835,487.667 108.5,487.5C 107.5,487.167 106.833,486.5 106.5,485.5C 143.5,484.833 180.5,484.167 217.5,483.5C 217.5,482.833 217.5,482.167 217.5,481.5C 218.167,481.167 218.833,480.833 219.5,480.5 Z"/></g>
<g><path style="opacity:1" fill="#df59ee" d="M 545.5,459.5 C 545.5,460.833 545.5,462.167 545.5,463.5C 545.595,468.887 545.095,474.22 544,479.5C 543.869,482.371 542.703,484.705 540.5,486.5C 504.173,487.5 467.839,487.833 431.5,487.5C 430.5,487.167 429.833,486.5 429.5,485.5C 466.5,484.833 503.5,484.167 540.5,483.5C 540.958,476.418 541.958,469.418 543.5,462.5C 544.167,461.5 544.833,460.5 545.5,459.5 Z"/></g>
<g><path style="opacity:1" fill="#db53ee" d="M 922.5,463.5 C 922.213,470.227 921.379,476.893 920,483.5C 918.833,484.667 917.667,485.833 916.5,487C 880.835,487.5 845.168,487.667 809.5,487.5C 808.599,486.71 807.932,485.71 807.5,484.5C 844.515,485.16 881.182,484.494 917.5,482.5C 917.342,479.098 917.676,475.764 918.5,472.5C 919.79,471.942 920.623,470.942 921,469.5C 921.191,467.292 921.691,465.292 922.5,463.5 Z"/></g>
</svg>
